# Blender v2.90.1 OBJ File: 'Grass.blend'
# www.blender.org
mtllib Rock1.mtl
o Rock_1_Cube
v 2.641001 3.652688 7.143822
v 2.623373 4.711537 6.890723
v 2.765652 3.620032 5.448862
v 2.771810 4.716515 5.699832
v 3.713076 3.593976 7.447408
v 3.705971 4.495155 7.155926
v 3.764457 3.657841 5.529483
v 3.730260 4.591307 5.728343
v 2.589096 3.537134 6.331348
v 2.595804 4.149754 7.126680
v 2.697006 4.874174 6.325120
v 2.711152 4.048845 5.377020
v 3.356497 3.578712 5.318543
v 3.312402 4.867907 5.673381
v 3.820791 3.915647 5.545604
v 3.931144 3.714616 6.721011
v 3.644726 4.829265 6.400951
v 3.755750 4.029001 7.620917
v 3.089816 3.604201 7.633729
v 3.135645 4.801392 7.040292
v 2.566418 4.167451 6.334564
v 3.410590 3.954478 5.439116
v 3.960047 3.976988 6.587652
v 3.116642 4.169877 7.652082
v 3.243756 5.169156 6.417957
vt 0.375000 0.000000
vt 0.500000 0.000000
vt 0.500000 0.125000
vt 0.375000 0.125000
vt 0.625000 0.000000
vt 0.625000 0.125000
vt 0.625000 0.250000
vt 0.500000 0.250000
vt 0.375000 0.250000
vt 0.500000 0.373264
vt 0.369792 0.369792
vt 0.630208 0.369792
vt 0.666667 0.458333
vt 0.500000 0.493056
vt 0.333333 0.458333
vt 0.500000 0.625000
vt 0.368056 0.625000
vt 0.631945 0.625000
vt 0.666667 0.791667
vt 0.500000 0.756944
vt 0.333333 0.791667
vt 0.500000 0.876736
vt 0.369792 0.880208
vt 0.630208 0.880208
vt 0.625000 1.000000
vt 0.500000 1.000000
vt 0.375000 1.000000
vt 0.755208 0.494792
vt 0.751736 0.625000
vt 0.875000 0.500000
vt 0.875000 0.625000
vt 0.875000 0.750000
vt 0.755208 0.755208
vn -0.9968 -0.0593 0.0541
vn -0.9926 0.1206 -0.0163
vn -0.9711 0.1727 -0.1648
vn -0.9820 -0.0826 -0.1699
vn -0.0464 0.0604 -0.9971
vn 0.0118 0.3325 -0.9430
vn 0.2838 0.2748 -0.9187
vn 0.3523 0.1383 -0.9256
vn 0.9745 -0.1875 -0.1236
vn 0.9638 0.2558 -0.0749
vn 0.9383 0.3221 0.1259
vn 0.9672 -0.1124 0.2278
vn 0.1437 -0.1960 0.9700
vn 0.2058 0.6882 0.6957
vn -0.5073 0.5122 0.6931
vn -0.7233 -0.0133 0.6904
vn 0.5922 0.7724 -0.2295
vn -0.3411 0.8800 -0.3305
vn -0.3879 0.8623 0.3256
vn 0.4752 0.7773 0.4123
usemtl Material.003
s off
f 1/1/1 10/2/1 21/3/1 9/4/1
f 10/2/2 2/5/2 11/6/2 21/3/2
f 21/3/3 11/6/3 4/7/3 12/8/3
f 9/4/4 21/3/4 12/8/4 3/9/4
f 3/9/5 12/8/5 22/10/5 13/11/5
f 12/8/6 4/7/6 14/12/6 22/10/6
f 22/10/7 14/12/7 8/13/7 15/14/7
f 13/11/8 22/10/8 15/14/8 7/15/8
f 7/15/9 15/14/9 23/16/9 16/17/9
f 15/14/10 8/13/10 17/18/10 23/16/10
f 23/16/11 17/18/11 6/19/11 18/20/11
f 16/17/12 23/16/12 18/20/12 5/21/12
f 5/21/13 18/20/13 24/22/13 19/23/13
f 18/20/14 6/19/14 20/24/14 24/22/14
f 24/22/15 20/24/15 2/25/15 10/26/15
f 19/23/16 24/22/16 10/26/16 1/27/16
f 8/13/17 14/28/17 25/29/17 17/18/17
f 14/28/18 4/30/18 11/31/18 25/29/18
f 25/29/19 11/31/19 2/32/19 20/33/19
f 17/18/20 25/29/20 20/33/20 6/19/20
