# Blender v2.90.1 OBJ File: 'Rock2.blend'
# www.blender.org
mtllib Rock5.mtl
o Rock-3_Cube.003
v -0.409927 0.010645 6.236570
v 0.128817 0.887401 4.880711
v -0.622746 0.082471 2.054385
v 0.257334 0.844203 3.096234
v 1.535338 0.011482 6.247434
v 0.820066 1.147352 4.992617
v 1.737940 0.076288 2.072426
v 1.048487 0.811868 3.150026
v -0.794323 0.059645 2.512333
v -0.668255 0.113269 3.934888
v -0.588850 0.047265 5.284349
v -0.326619 0.440143 6.206327
v -0.150572 0.679193 5.624699
v 0.005644 0.820429 5.155706
v 0.135749 0.856959 4.483616
v 0.164396 0.839322 3.963937
v 0.211036 0.836624 3.454973
v 0.105165 0.819712 2.894906
v -0.183193 0.739404 2.591861
v -0.599094 0.451936 2.251816
v 1.106206 0.099221 1.838940
v 0.584197 0.094565 1.779066
v 0.038279 0.106442 1.835745
v 0.434832 0.832557 3.041613
v 0.665528 0.824171 3.021733
v 0.889187 0.817582 3.064749
v 1.164082 0.767464 2.955403
v 1.344075 0.655941 2.676441
v 1.597239 0.416657 2.349359
v 1.717364 0.062117 5.286525
v 1.949434 0.090700 3.927533
v 1.868620 0.052732 2.593286
v 1.046352 0.856158 3.526164
v 0.992817 0.961842 4.055915
v 0.908401 1.071444 4.588566
v 0.935359 1.092345 5.280765
v 1.157608 0.832996 5.721526
v 1.452300 0.445141 6.238852
v 0.104117 -0.000138 6.890294
v 0.565788 0.009546 7.072608
v 1.027441 -0.000136 6.890342
v 0.648787 1.137031 5.078231
v 0.441710 1.075194 5.097340
v 0.257935 0.973562 5.008755
v -0.566079 0.405496 5.097899
v -0.324570 0.643153 4.834940
v -0.068083 0.769125 4.607892
v -0.605834 0.413082 3.955474
v -0.345606 0.644207 3.973986
v -0.066317 0.766203 3.966595
v -0.668209 0.485647 2.806287
v -0.316399 0.711107 3.149840
v -0.015465 0.795689 3.348781
v 0.056656 0.397296 2.026990
v 0.233479 0.671946 2.325085
v 0.365882 0.795426 2.680882
v 0.622384 0.382236 1.959075
v 0.655886 0.653159 2.242393
v 0.663556 0.783630 2.619970
v 1.126567 0.399119 2.054167
v 1.036960 0.658653 2.348042
v 0.945037 0.778426 2.704843
v 1.745585 0.415787 2.998547
v 1.507820 0.653671 3.270030
v 1.255929 0.792147 3.440530
v 1.871235 0.481630 4.036874
v 1.535518 0.761547 4.078267
v 1.232131 0.903761 4.076553
v 1.680356 0.493497 5.121681
v 1.404312 0.872257 4.932872
v 1.120681 1.027017 4.729660
v 0.942142 0.445433 6.777590
v 0.847950 0.760995 6.226249
v 0.704966 1.009979 5.611975
v 0.554364 0.445926 6.868672
v 0.486135 0.756387 6.397397
v 0.437219 0.944145 5.725700
v 0.167841 0.437109 6.757311
v 0.144154 0.718773 6.197678
v 0.187042 0.880443 5.552805
v -0.126072 0.081865 2.439177
v 0.569599 0.100183 2.601181
v 1.242278 0.106106 2.583622
v -0.145441 0.031662 4.074563
v 0.557604 0.019505 4.136432
v 1.363827 0.060977 4.062162
v -0.079570 -0.032519 5.943805
v 0.540602 -0.053959 6.246032
v 1.181558 -0.026447 5.988549
v 0.845798 0.871152 3.514645
v 0.633668 0.866208 3.490163
v 0.417995 0.854367 3.479023
v 0.781274 0.963619 4.032907
v 0.575493 0.938172 4.005173
v 0.370222 0.892737 3.982384
v 0.710853 1.056038 4.560674
v 0.509827 1.014535 4.540215
v 0.318207 0.936842 4.501301
vt 0.437500 0.062500
vt 0.500000 0.062500
vt 0.500000 0.125000
vt 0.437500 0.125000
vt 0.562500 0.062500
vt 0.562500 0.125000
vt 0.500000 0.187500
vt 0.437500 0.187500
vt 0.562500 0.187500
vt 0.375000 0.000000
vt 0.437500 0.000000
vt 0.375000 0.062500
vt 0.500000 0.000000
vt 0.562500 0.000000
vt 0.625000 0.000000
vt 0.625000 0.062500
vt 0.625000 0.125000
vt 0.625000 0.187500
vt 0.625000 0.250000
vt 0.562500 0.250000
vt 0.500000 0.250000
vt 0.437500 0.250000
vt 0.375000 0.187500
vt 0.375000 0.250000
vt 0.375000 0.125000
vt 0.437500 0.312500
vt 0.500000 0.312500
vt 0.500000 0.375000
vt 0.437500 0.375000
vt 0.562500 0.312500
vt 0.562500 0.375000
vt 0.500000 0.437500
vt 0.437500 0.437500
vt 0.562500 0.437500
vt 0.375000 0.312500
vt 0.625000 0.312500
vt 0.625000 0.375000
vt 0.625000 0.437500
vt 0.625000 0.500000
vt 0.562500 0.500000
vt 0.500000 0.500000
vt 0.437500 0.500000
vt 0.375000 0.437500
vt 0.375000 0.500000
vt 0.375000 0.375000
vt 0.437500 0.562500
vt 0.500000 0.562500
vt 0.500000 0.625000
vt 0.437500 0.625000
vt 0.562500 0.562500
vt 0.562500 0.625000
vt 0.500000 0.687500
vt 0.437500 0.687500
vt 0.562500 0.687500
vt 0.375000 0.562500
vt 0.625000 0.562500
vt 0.625000 0.625000
vt 0.625000 0.687500
vt 0.625000 0.750000
vt 0.562500 0.750000
vt 0.500000 0.750000
vt 0.437500 0.750000
vt 0.375000 0.687500
vt 0.375000 0.750000
vt 0.375000 0.625000
vt 0.437500 0.812500
vt 0.500000 0.812500
vt 0.500000 0.875000
vt 0.437500 0.875000
vt 0.562500 0.812500
vt 0.562500 0.875000
vt 0.500000 0.937500
vt 0.437500 0.937500
vt 0.562500 0.937500
vt 0.375000 0.812500
vt 0.625000 0.812500
vt 0.625000 0.875000
vt 0.625000 0.937500
vt 0.625000 1.000000
vt 0.562500 1.000000
vt 0.500000 1.000000
vt 0.437500 1.000000
vt 0.375000 0.937500
vt 0.375000 1.000000
vt 0.375000 0.875000
vt 0.187500 0.562500
vt 0.250000 0.562500
vt 0.250000 0.625000
vt 0.187500 0.625000
vt 0.312500 0.562500
vt 0.312500 0.625000
vt 0.250000 0.687500
vt 0.187500 0.687500
vt 0.312500 0.687500
vt 0.125000 0.500000
vt 0.187500 0.500000
vt 0.125000 0.562500
vt 0.250000 0.500000
vt 0.312500 0.500000
vt 0.312500 0.750000
vt 0.250000 0.750000
vt 0.187500 0.750000
vt 0.125000 0.687500
vt 0.125000 0.750000
vt 0.125000 0.625000
vt 0.687500 0.562500
vt 0.750000 0.562500
vt 0.750000 0.625000
vt 0.687500 0.625000
vt 0.812500 0.562500
vt 0.812500 0.625000
vt 0.750000 0.687500
vt 0.687500 0.687500
vt 0.812500 0.687500
vt 0.687500 0.500000
vt 0.750000 0.500000
vt 0.812500 0.500000
vt 0.875000 0.500000
vt 0.875000 0.562500
vt 0.875000 0.625000
vt 0.875000 0.687500
vt 0.875000 0.750000
vt 0.812500 0.750000
vt 0.750000 0.750000
vt 0.687500 0.750000
vn -0.6763 0.7362 0.0237
vn -0.4185 0.9082 0.0042
vn -0.6213 0.7808 0.0656
vn -0.3478 0.9366 0.0433
vn -0.9633 0.1836 0.1958
vn -0.6413 0.7591 0.1114
vn -0.4996 0.8655 0.0360
vn -0.4699 0.8816 -0.0431
vn -0.3538 0.9349 -0.0258
vn -0.2425 0.9702 0.0021
vn -0.1725 0.9850 0.0029
vn -0.2578 0.9661 -0.0147
vn -0.4938 0.8645 -0.0940
vn -0.9237 0.3116 -0.2229
vn -0.9725 0.2210 0.0729
vn -0.9887 0.1410 0.0514
vn -0.0764 0.7407 -0.6674
vn -0.0242 0.9461 -0.3230
vn 0.1319 0.7362 -0.6638
vn 0.0893 0.9459 -0.3121
vn -0.2656 0.5015 -0.8233
vn -0.1649 0.8111 -0.5612
vn -0.0558 0.9634 -0.2624
vn 0.0118 0.9935 -0.1136
vn 0.0222 0.9944 -0.1034
vn 0.0487 0.9937 -0.1005
vn 0.1374 0.9848 -0.1059
vn 0.2713 0.9360 -0.2245
vn 0.3530 0.8149 -0.4597
vn 0.3444 0.6120 -0.7119
vn 0.1138 0.5467 -0.8296
vn -0.0804 0.5439 -0.8353
vn 0.6267 0.7693 -0.1244
vn 0.4131 0.9002 -0.1379
vn 0.7220 0.6877 0.0764
vn 0.4676 0.8818 -0.0616
vn 0.8439 0.5014 -0.1908
vn 0.5917 0.7927 -0.1466
vn 0.4054 0.9069 -0.1149
vn 0.2345 0.9668 -0.1019
vn 0.2369 0.9578 -0.1628
vn 0.2675 0.9529 -0.1429
vn 0.3397 0.9396 -0.0416
vn 0.5076 0.8489 0.1472
vn 0.6865 0.6982 0.2031
vn 0.9646 0.1737 0.1986
vn 0.9743 0.1480 0.1696
vn 0.9435 0.3173 -0.0960
vn 0.1685 0.8524 0.4950
vn 0.0371 0.9479 0.3164
vn -0.2652 0.8257 0.4979
vn -0.3113 0.9181 0.2451
vn 0.7364 0.2289 0.6367
vn 0.4208 0.8205 0.3870
vn 0.2697 0.9007 0.3406
vn -0.0007 0.9763 0.2164
vn -0.1951 0.9556 0.2209
vn -0.4266 0.8930 0.1433
vn -0.4959 0.8668 0.0519
vn -0.4829 0.8630 0.1484
vn -0.4800 0.8206 0.3103
vn -0.7423 0.2435 0.6242
vn -0.3125 0.3580 0.8799
vn 0.2906 0.3514 0.8900
vn 0.0110 -0.9991 -0.0411
vn 0.0293 -0.9987 -0.0428
vn -0.0159 -0.9993 -0.0344
vn 0.0389 -0.9985 -0.0379
vn 0.0268 -0.9990 -0.0361
vn 0.0062 -0.9999 -0.0125
vn 0.0086 -0.9999 0.0073
vn -0.0605 -0.9982 -0.0004
vn -0.0196 -0.9998 -0.0011
vn 0.0870 -0.9959 -0.0242
vn 0.1026 -0.9947 0.0055
vn 0.0379 -0.9978 0.0547
vn -0.0370 -0.9976 0.0583
vn -0.1127 -0.9934 0.0193
vn -0.1284 -0.9911 -0.0343
vn -0.0500 -0.9987 0.0029
vn -0.0513 0.9853 -0.1629
vn -0.1244 0.9850 -0.1197
vn -0.1400 0.9750 -0.1728
vn -0.2736 0.9517 -0.1393
vn 0.0872 0.9898 -0.1125
vn 0.0195 0.9946 -0.1019
vn -0.0091 0.9974 -0.0708
vn -0.0174 0.9997 -0.0192
vn -0.1641 0.9849 -0.0553
vn -0.3169 0.9450 -0.0808
vn -0.4317 0.8966 -0.0986
vn -0.3909 0.9111 -0.1305
vn -0.2420 0.9577 -0.1556
vn -0.0968 0.9785 -0.1824
vn -0.0093 0.9820 -0.1884
vn 0.0550 0.9822 -0.1795
usemtl Material.001
s off
f 45/1/1 46/2/1 49/3/1 48/4/1
f 46/2/2 47/5/2 50/6/2 49/3/2
f 48/4/3 49/3/3 52/7/3 51/8/3
f 49/3/4 50/6/4 53/9/4 52/7/4
f 1/10/5 12/11/5 45/1/5 11/12/5
f 12/11/6 13/13/6 46/2/6 45/1/6
f 13/13/7 14/14/7 47/5/7 46/2/7
f 14/14/8 2/15/8 15/16/8 47/5/8
f 47/5/9 15/16/9 16/17/9 50/6/9
f 50/6/10 16/17/10 17/18/10 53/9/10
f 53/9/11 17/18/11 4/19/11 18/20/11
f 52/7/12 53/9/12 18/20/12 19/21/12
f 51/8/13 52/7/13 19/21/13 20/22/13
f 9/23/14 51/8/14 20/22/14 3/24/14
f 10/25/15 48/4/15 51/8/15 9/23/15
f 11/12/16 45/1/16 48/4/16 10/25/16
f 54/26/17 55/27/17 58/28/17 57/29/17
f 55/27/18 56/30/18 59/31/18 58/28/18
f 57/29/19 58/28/19 61/32/19 60/33/19
f 58/28/20 59/31/20 62/34/20 61/32/20
f 3/24/21 20/22/21 54/26/21 23/35/21
f 20/22/22 19/21/22 55/27/22 54/26/22
f 19/21/23 18/20/23 56/30/23 55/27/23
f 18/20/24 4/19/24 24/36/24 56/30/24
f 56/30/25 24/36/25 25/37/25 59/31/25
f 59/31/26 25/37/26 26/38/26 62/34/26
f 62/34/27 26/38/27 8/39/27 27/40/27
f 61/32/28 62/34/28 27/40/28 28/41/28
f 60/33/29 61/32/29 28/41/29 29/42/29
f 21/43/30 60/33/30 29/42/30 7/44/30
f 22/45/31 57/29/31 60/33/31 21/43/31
f 23/35/32 54/26/32 57/29/32 22/45/32
f 63/46/33 64/47/33 67/48/33 66/49/33
f 64/47/34 65/50/34 68/51/34 67/48/34
f 66/49/35 67/48/35 70/52/35 69/53/35
f 67/48/36 68/51/36 71/54/36 70/52/36
f 7/44/37 29/42/37 63/46/37 32/55/37
f 29/42/38 28/41/38 64/47/38 63/46/38
f 28/41/39 27/40/39 65/50/39 64/47/39
f 27/40/40 8/39/40 33/56/40 65/50/40
f 65/50/41 33/56/41 34/57/41 68/51/41
f 68/51/42 34/57/42 35/58/42 71/54/42
f 71/54/43 35/58/43 6/59/43 36/60/43
f 70/52/44 71/54/44 36/60/44 37/61/44
f 69/53/45 70/52/45 37/61/45 38/62/45
f 30/63/46 69/53/46 38/62/46 5/64/46
f 31/65/47 66/49/47 69/53/47 30/63/47
f 32/55/48 63/46/48 66/49/48 31/65/48
f 72/66/49 73/67/49 76/68/49 75/69/49
f 73/67/50 74/70/50 77/71/50 76/68/50
f 75/69/51 76/68/51 79/72/51 78/73/51
f 76/68/52 77/71/52 80/74/52 79/72/52
f 5/64/53 38/62/53 72/66/53 41/75/53
f 38/62/54 37/61/54 73/67/54 72/66/54
f 37/61/55 36/60/55 74/70/55 73/67/55
f 36/60/56 6/59/56 42/76/56 74/70/56
f 74/70/57 42/76/57 43/77/57 77/71/57
f 77/71/58 43/77/58 44/78/58 80/74/58
f 80/74/59 44/78/59 2/79/59 14/80/59
f 79/72/60 80/74/60 14/80/60 13/81/60
f 78/73/61 79/72/61 13/81/61 12/82/61
f 39/83/62 78/73/62 12/82/62 1/84/62
f 40/85/63 75/69/63 78/73/63 39/83/63
f 41/75/64 72/66/64 75/69/64 40/85/64
f 81/86/65 82/87/65 85/88/65 84/89/65
f 82/87/66 83/90/66 86/91/66 85/88/66
f 84/89/67 85/88/67 88/92/67 87/93/67
f 85/88/68 86/91/68 89/94/68 88/92/68
f 3/95/69 23/96/69 81/86/69 9/97/69
f 23/96/70 22/98/70 82/87/70 81/86/70
f 22/98/71 21/99/71 83/90/71 82/87/71
f 21/99/72 7/44/72 32/55/72 83/90/72
f 83/90/73 32/55/73 31/65/73 86/91/73
f 86/91/74 31/65/74 30/63/74 89/94/74
f 89/94/75 30/63/75 5/64/75 41/100/75
f 88/92/76 89/94/76 41/100/76 40/101/76
f 87/93/77 88/92/77 40/101/77 39/102/77
f 11/103/78 87/93/78 39/102/78 1/104/78
f 10/105/79 84/89/79 87/93/79 11/103/79
f 9/97/80 81/86/80 84/89/80 10/105/80
f 90/106/81 91/107/81 94/108/81 93/109/81
f 91/107/82 92/110/82 95/111/82 94/108/82
f 93/109/83 94/108/83 97/112/83 96/113/83
f 94/108/84 95/111/84 98/114/84 97/112/84
f 8/39/85 26/115/85 90/106/85 33/56/85
f 26/115/86 25/116/86 91/107/86 90/106/86
f 25/116/87 24/117/87 92/110/87 91/107/87
f 24/117/88 4/118/88 17/119/88 92/110/88
f 92/110/89 17/119/89 16/120/89 95/111/89
f 95/111/90 16/120/90 15/121/90 98/114/90
f 98/114/91 15/121/91 2/122/91 44/123/91
f 97/112/92 98/114/92 44/123/92 43/124/92
f 96/113/93 97/112/93 43/124/93 42/125/93
f 35/58/94 96/113/94 42/125/94 6/59/94
f 34/57/95 93/109/95 96/113/95 35/58/95
f 33/56/96 90/106/96 93/109/96 34/57/96
