# Blender v2.90.1 OBJ File: 'Rock2.blend'
# www.blender.org
mtllib Rock2.mtl
o Rock2_Cube
v 0.492287 0.378422 3.962524
v 0.486358 -0.665925 3.387596
v 0.540618 0.626720 5.458759
v 0.583497 -0.649980 5.481299
v -0.492169 0.363241 3.975023
v -0.450320 -0.679317 3.316592
v -0.526114 0.635221 5.428247
v -0.561575 -0.789111 5.445128
v -0.724891 -0.764504 4.558819
v 0.014534 -0.764504 2.985857
v 0.565023 -0.120313 3.528474
v -0.579403 -0.075908 5.544446
v 0.591554 -0.004073 5.492002
v -0.527736 -0.197497 3.509055
v 0.026227 0.703648 5.499855
v 0.511227 0.610406 4.700963
v 0.002072 -0.768839 5.865941
v -0.513016 0.611483 4.703068
v -0.003439 0.423597 3.879854
v 0.725263 -0.764505 4.563330
v 0.288122 0.607909 4.250904
v -0.286695 0.606729 4.259984
v 0.005114 0.828060 4.710656
v 0.305356 0.817738 5.162161
v -0.284965 0.812923 5.146418
v 0.407030 -0.370381 5.797220
v 0.359751 0.427240 5.694867
v 0.060003 0.088576 5.888417
v -0.379044 -0.777198 5.764107
v -0.310958 0.431984 5.631291
v -0.685545 -0.774543 5.089701
v -0.624490 0.402334 5.157514
v -0.724352 -0.036894 4.568056
v -0.677969 -0.471998 3.846421
v -0.652955 0.188052 4.145764
v -0.314710 -0.764650 3.451988
v 0.337468 -0.775780 3.502123
v 0.539029 -0.764504 5.199564
v 0.668931 -0.488440 3.865155
v 0.647359 0.226209 4.147833
v 0.712964 -0.031289 4.570048
v 0.663787 -0.397995 5.074445
v 0.629184 0.405400 5.165866
v -0.254759 -0.494953 3.088491
v -0.281110 0.121891 3.572533
v 0.007775 -0.188318 3.186278
v 0.265375 -0.470813 3.130006
v 0.330411 0.159608 3.571554
vt 0.432655 0.383932
vt 0.376508 0.411439
vt 0.373855 0.348389
vt 0.431574 0.319205
vt 0.325879 0.382233
vt 0.327653 0.290226
vt 0.370012 0.295795
vt 0.502744 0.288609
vt 0.481245 0.361729
vt 0.511524 0.394568
vt 0.427328 0.441174
vt 0.413870 0.498323
vt 0.378206 0.490392
vt 0.378062 0.459056
vt 0.356731 0.513808
vt 0.339315 0.473763
vt 0.294525 0.539514
vt 0.296338 0.482600
vt 0.306170 0.452883
vt 0.333544 0.435594
vt 0.480651 0.103256
vt 0.593709 0.035997
vt 0.594171 0.160247
vt 0.506552 0.185943
vt 0.207324 0.550376
vt 0.232480 0.472230
vt 0.124256 0.515878
vt 0.137921 0.401642
vt 0.281404 0.423769
vt 0.176385 0.728164
vt 0.000115 0.495403
vt 0.415398 0.243668
vt 0.395556 0.585886
vt 0.596862 0.754571
vt 0.451284 0.798370
vt 0.299720 0.802040
vt 0.527891 0.479399
vt 0.573866 0.283490
vt 0.642147 0.352366
vt 0.655517 0.215666
vt 0.724160 0.578317
vt 0.724160 0.196182
vt 0.244851 0.316646
vt 0.389767 0.075619
vt 0.372020 0.000115
vt 0.052529 0.202925
vt 0.286988 0.150667
vt 0.384974 0.190061
vn -0.0088 0.8991 -0.4376
vn 0.6747 0.6990 -0.2369
vn -0.2086 0.7984 -0.5648
vn -0.6939 0.6753 -0.2501
vn -0.7706 0.6363 -0.0347
vn -0.1746 0.7788 0.6025
vn -0.0763 0.5295 0.8449
vn 0.1658 0.8033 0.5720
vn 0.0600 0.3286 -0.9426
vn 0.6074 0.1364 0.7826
vn 0.9420 -0.0173 0.3353
vn 0.8886 0.0954 0.4486
vn 0.5009 -0.6676 0.5509
vn 0.1648 0.8279 -0.5361
vn -0.8288 0.1502 0.5391
vn -0.9076 -0.0801 0.4122
vn -0.9880 0.0427 0.1484
vn -0.7124 0.4747 -0.5169
vn -0.8711 0.0550 -0.4881
vn -0.7404 -0.6394 -0.2075
vn 0.9511 0.3066 -0.0370
vn 0.6033 -0.5556 -0.5722
vn 0.9484 -0.2617 0.1791
vn -0.0296 -0.0242 0.9993
vn 0.9851 0.0881 -0.1475
vn 0.8766 -0.0021 -0.4812
vn 0.7295 0.5065 -0.4597
vn -0.9715 0.1274 -0.1997
vn -0.9475 0.3173 -0.0405
vn -0.0122 0.9877 0.1560
vn 0.3824 0.8988 -0.2142
vn -0.4405 0.5425 -0.7153
vn 0.9999 0.0167 0.0030
vn 0.4102 0.4944 -0.7663
vn -1.0000 0.0008 -0.0059
vn -0.0472 0.7487 -0.6613
vn -0.3745 0.9033 -0.2094
vn 0.7859 0.6168 -0.0438
vn -0.5185 -0.6436 -0.5630
vn 0.7600 -0.6163 -0.2061
vn 0.9912 0.0279 0.1297
vn -0.4944 0.1224 0.8606
usemtl Material
s off
f 22/1/1 23/2/1 21/3/1 19/4/1
f 16/5/2 40/6/2 1/7/2 21/3/2
f 19/4/3 45/8/3 5/9/3 22/1/3
f 5/9/4 35/10/4 18/11/4 22/1/4
f 18/11/5 32/12/5 7/13/5 25/14/5
f 7/13/6 30/15/6 15/16/6 25/14/6
f 30/15/7 28/17/7 27/18/7 15/16/7
f 15/16/8 27/18/8 3/19/8 24/20/8
f 47/21/9 10/22/9 44/23/9 46/24/9
f 27/18/10 28/17/10 26/25/10 13/26/10
f 4/27/11 42/28/11 13/26/11 26/25/11
f 13/26/12 43/29/12 3/19/12 27/18/12
f 26/25/13 17/30/13 38/31/13 4/27/13
f 1/7/14 48/32/14 19/4/14 21/3/14
f 7/13/15 32/12/15 12/33/15 30/15/15
f 12/33/16 31/34/16 8/35/16 29/36/16
f 32/12/17 33/37/17 31/34/17 12/33/17
f 35/10/18 5/9/18 45/8/18 14/38/18
f 34/39/19 14/38/19 44/23/19 6/40/19
f 9/41/20 34/39/20 6/40/20 36/42/20
f 43/29/21 41/43/21 40/6/21 16/5/21
f 10/22/22 47/21/22 2/44/22 37/45/22
f 20/46/23 42/28/23 4/27/23 38/31/23
f 29/36/24 17/30/24 26/25/24 28/17/24
f 40/6/25 41/43/25 39/47/25 11/48/25
f 2/44/26 47/21/26 11/48/26 39/47/26
f 11/48/27 48/32/27 1/7/27 40/6/27
f 14/38/28 34/39/28 33/37/28 35/10/28
f 35/10/29 33/37/29 32/12/29 18/11/29
f 15/16/30 24/20/30 23/2/30 25/14/30
f 24/20/31 16/5/31 21/3/31 23/2/31
f 45/8/32 46/24/32 44/23/32 14/38/32
f 42/28/33 20/46/33 39/47/33 41/43/33
f 11/48/34 47/21/34 46/24/34 48/32/34
f 34/39/35 9/41/35 31/34/35 33/37/35
f 48/32/36 46/24/36 45/8/36 19/4/36
f 25/14/37 23/2/37 22/1/37 18/11/37
f 3/19/38 43/29/38 16/5/38 24/20/38
f 44/23/39 10/22/39 36/42/39 6/40/39
f 39/47/40 20/46/40 37/45/40 2/44/40
f 13/26/41 42/28/41 41/43/41 43/29/41
f 12/33/42 29/36/42 28/17/42 30/15/42
