# Blender v2.90.1 OBJ File: 'Grass.blend'
# www.blender.org
mtllib Grass.mtl
o Grass_Set_2.013_Plane.018
v 0.750829 7.932258 21.035994
v 2.155868 3.687411 20.662495
v 0.071546 7.872850 19.155823
v 1.476586 3.628004 18.782322
v 1.063234 8.005012 20.048800
v 2.543638 3.769374 20.060965
v 0.984635 7.971801 18.050621
v 2.465039 3.736163 18.062786
v 0.256173 7.933926 18.694447
v 1.731787 3.700613 18.878817
v 0.445745 7.913298 16.703558
v 1.921358 3.679985 16.887928
v 2.220102 8.075999 26.133396
v 3.625141 3.831151 25.759897
v 1.540819 8.016592 24.253225
v 2.945859 3.771744 23.879725
v 2.532508 8.148752 25.146202
v 4.012912 3.913114 25.158367
v 2.453908 8.115541 23.148024
v 3.934312 3.879903 23.160189
v 1.725446 8.077667 23.791849
v 3.201060 3.844353 23.976219
v 1.915018 8.057038 21.800961
v 3.390632 3.823725 21.985331
v 2.015205 8.006977 22.111235
v 3.420244 3.762129 21.737736
v 1.335922 7.947570 20.231064
v 2.740962 3.702722 19.857563
v 2.327610 8.079730 21.124041
v 3.808015 3.844092 21.136206
v 2.249011 8.046519 19.125860
v 3.729415 3.810882 19.138027
v 1.520550 8.008645 19.769688
v 2.996163 3.775331 19.954058
v 1.710121 7.988017 17.778799
v 3.185734 3.754703 17.963169
v 0.713621 7.986731 24.835836
v 2.118660 3.741882 24.462336
v 0.034338 7.927322 22.955664
v 1.439378 3.682475 22.582163
v 1.026026 8.059484 23.848640
v 2.506431 3.823845 23.860806
v 0.947427 8.026272 21.850462
v 2.427831 3.790635 21.862627
v 0.218965 7.988398 22.494287
v 1.694579 3.755084 22.678658
v 0.408537 7.967770 20.503399
v 1.884150 3.734456 20.687769
vt 0.000000 0.957031
vt 0.000000 0.000000
vt 1.000000 0.000000
vt 1.000000 0.957031
vt 0.000000 0.957031
vt 0.000000 0.000000
vt 1.000000 0.000000
vt 1.000000 0.957031
vt 0.000000 0.957031
vt 0.000000 0.000000
vt 1.000000 0.000000
vt 1.000000 0.957031
vt 0.000000 0.957031
vt 0.000000 0.000000
vt 1.000000 0.000000
vt 1.000000 0.957031
vt 0.000000 0.957031
vt 0.000000 0.000000
vt 1.000000 0.000000
vt 1.000000 0.957031
vt 0.000000 0.957031
vt 0.000000 0.000000
vt 1.000000 0.000000
vt 1.000000 0.957031
vt 0.000000 0.957031
vt 0.000000 0.000000
vt 1.000000 0.000000
vt 1.000000 0.957031
vt 0.000000 0.957031
vt 0.000000 0.000000
vt 1.000000 0.000000
vt 1.000000 0.957031
vt 0.000000 0.957031
vt 0.000000 0.000000
vt 1.000000 0.000000
vt 1.000000 0.957031
vt 0.000000 0.957031
vt 0.000000 0.000000
vt 1.000000 0.000000
vt 1.000000 0.957031
vt 0.000000 0.957031
vt 0.000000 0.000000
vt 1.000000 0.000000
vt 1.000000 0.957031
vt 0.000000 0.957031
vt 0.000000 0.000000
vt 1.000000 0.000000
vt 1.000000 0.957031
vn 0.8869 0.3227 -0.3306
vn 0.9432 0.3295 -0.0426
vn 0.9396 0.3313 0.0860
usemtl Material
s off
f 1/1/1 2/2/1 4/3/1 3/4/1
f 5/5/2 6/6/2 8/7/2 7/8/2
f 9/9/3 10/10/3 12/11/3 11/12/3
f 13/13/1 14/14/1 16/15/1 15/16/1
f 17/17/2 18/18/2 20/19/2 19/20/2
f 21/21/3 22/22/3 24/23/3 23/24/3
f 25/25/1 26/26/1 28/27/1 27/28/1
f 29/29/2 30/30/2 32/31/2 31/32/2
f 33/33/3 34/34/3 36/35/3 35/36/3
f 37/37/1 38/38/1 40/39/1 39/40/1
f 41/41/2 42/42/2 44/43/2 43/44/2
f 45/45/3 46/46/3 48/47/3 47/48/3
o Grass_Set_2.014_Plane.019
v -2.837635 7.767459 21.179895
v -1.432596 3.522612 20.806396
v -3.516918 7.708052 19.299725
v -2.111878 3.463205 18.926224
v -2.525229 7.840213 20.192701
v -1.044825 3.604575 20.204866
v -2.603829 7.807002 18.194523
v -1.123425 3.571364 18.206688
v -3.332290 7.769127 18.838348
v -1.856677 3.535814 19.022718
v -3.142719 7.748499 16.847460
v -1.667106 3.515186 17.031830
v -1.368362 7.911201 26.277298
v 0.036678 3.666353 25.903799
v -2.047645 7.851793 24.397127
v -0.642605 3.606945 24.023626
v -1.055956 7.983953 25.290104
v 0.424448 3.748315 25.302269
v -1.134555 7.950742 23.291925
v 0.345849 3.715105 23.304090
v -1.863017 7.912868 23.935751
v -0.387404 3.679554 24.120121
v -1.673445 7.892240 21.944862
v -0.197832 3.658926 22.129232
v -1.573259 7.842178 22.255136
v -0.168219 3.597331 21.881638
v -2.252542 7.782771 20.374966
v -0.847502 3.537923 20.001465
v -1.260853 7.914931 21.267942
v 0.219551 3.679294 21.280107
v -1.339453 7.881721 19.269762
v 0.140951 3.646083 19.281929
v -2.067914 7.843846 19.913589
v -0.592301 3.610532 20.097960
v -1.878342 7.823218 17.922701
v -0.402730 3.589904 18.107071
v -2.874843 7.821932 24.979738
v -1.469804 3.577084 24.606237
v -3.554126 7.762524 23.099566
v -2.149086 3.517676 22.726065
v -2.562438 7.894685 23.992542
v -1.082033 3.659047 24.004707
v -2.641037 7.861473 21.994364
v -1.160633 3.625836 22.006529
v -3.369498 7.823599 22.638189
v -1.893885 3.590285 22.822559
v -3.179926 7.802971 20.647301
v -1.704314 3.569657 20.831671
vt 0.000000 0.957031
vt 0.000000 0.000000
vt 1.000000 0.000000
vt 1.000000 0.957031
vt 0.000000 0.957031
vt 0.000000 0.000000
vt 1.000000 0.000000
vt 1.000000 0.957031
vt 0.000000 0.957031
vt 0.000000 0.000000
vt 1.000000 0.000000
vt 1.000000 0.957031
vt 0.000000 0.957031
vt 0.000000 0.000000
vt 1.000000 0.000000
vt 1.000000 0.957031
vt 0.000000 0.957031
vt 0.000000 0.000000
vt 1.000000 0.000000
vt 1.000000 0.957031
vt 0.000000 0.957031
vt 0.000000 0.000000
vt 1.000000 0.000000
vt 1.000000 0.957031
vt 0.000000 0.957031
vt 0.000000 0.000000
vt 1.000000 0.000000
vt 1.000000 0.957031
vt 0.000000 0.957031
vt 0.000000 0.000000
vt 1.000000 0.000000
vt 1.000000 0.957031
vt 0.000000 0.957031
vt 0.000000 0.000000
vt 1.000000 0.000000
vt 1.000000 0.957031
vt 0.000000 0.957031
vt 0.000000 0.000000
vt 1.000000 0.000000
vt 1.000000 0.957031
vt 0.000000 0.957031
vt 0.000000 0.000000
vt 1.000000 0.000000
vt 1.000000 0.957031
vt 0.000000 0.957031
vt 0.000000 0.000000
vt 1.000000 0.000000
vt 1.000000 0.957031
vn 0.8869 0.3227 -0.3306
vn 0.9432 0.3295 -0.0426
vn 0.9396 0.3313 0.0860
usemtl Material
s off
f 49/49/4 50/50/4 52/51/4 51/52/4
f 53/53/5 54/54/5 56/55/5 55/56/5
f 57/57/6 58/58/6 60/59/6 59/60/6
f 61/61/4 62/62/4 64/63/4 63/64/4
f 65/65/5 66/66/5 68/67/5 67/68/5
f 69/69/6 70/70/6 72/71/6 71/72/6
f 73/73/4 74/74/4 76/75/4 75/76/4
f 77/77/5 78/78/5 80/79/5 79/80/5
f 81/81/6 82/82/6 84/83/6 83/84/6
f 85/85/4 86/86/4 88/87/4 87/88/4
f 89/89/5 90/90/5 92/91/5 91/92/5
f 93/93/6 94/94/6 96/95/6 95/96/6
o Grass_Set_2.015_Plane.020
v 3.691478 8.070761 21.151966
v 5.096518 3.825913 20.778467
v 3.012196 8.011353 19.271795
v 4.417236 3.766506 18.898294
v 4.003884 8.143514 20.164772
v 5.484288 3.907876 20.176937
v 3.925285 8.110303 18.166594
v 5.405689 3.874665 18.178759
v 3.196823 8.072428 18.810419
v 4.672437 3.839115 18.994789
v 3.386395 8.051800 16.819530
v 4.862008 3.818487 17.003901
v 5.160752 8.214501 26.249371
v 6.565791 3.969653 25.875870
v 4.481469 8.155094 24.369198
v 5.886509 3.910246 23.995697
v 5.473158 8.287254 25.262175
v 6.953562 4.051616 25.274340
v 5.394558 8.254044 23.263996
v 6.874962 4.018405 23.276161
v 4.666097 8.216169 23.907822
v 6.141710 3.982855 24.092192
v 4.855668 8.195540 21.916933
v 6.331282 3.962227 22.101303
v 4.955854 8.145479 22.227207
v 6.360894 3.900631 21.853708
v 4.276572 8.086072 20.347036
v 5.681612 3.841224 19.973536
v 5.268260 8.218232 21.240013
v 6.748665 3.982594 21.252178
v 5.189661 8.185021 19.241833
v 6.670065 3.949384 19.254000
v 4.461200 8.147147 19.885660
v 5.936813 3.913833 20.070030
v 4.650771 8.126518 17.894772
v 6.126384 3.893205 18.079142
v 3.654271 8.125233 24.951809
v 5.059310 3.880384 24.578308
v 2.974988 8.065825 23.071636
v 4.380028 3.820977 22.698135
v 3.966676 8.197986 23.964613
v 5.447081 3.962348 23.976780
v 3.888077 8.164774 21.966434
v 5.368481 3.929137 21.978600
v 3.159615 8.126900 22.610260
v 4.635229 3.893586 22.794630
v 3.349187 8.106272 20.619371
v 4.824800 3.872958 20.803741
vt 0.000000 0.957031
vt 0.000000 0.000000
vt 1.000000 0.000000
vt 1.000000 0.957031
vt 0.000000 0.957031
vt 0.000000 0.000000
vt 1.000000 0.000000
vt 1.000000 0.957031
vt 0.000000 0.957031
vt 0.000000 0.000000
vt 1.000000 0.000000
vt 1.000000 0.957031
vt 0.000000 0.957031
vt 0.000000 0.000000
vt 1.000000 0.000000
vt 1.000000 0.957031
vt 0.000000 0.957031
vt 0.000000 0.000000
vt 1.000000 0.000000
vt 1.000000 0.957031
vt 0.000000 0.957031
vt 0.000000 0.000000
vt 1.000000 0.000000
vt 1.000000 0.957031
vt 0.000000 0.957031
vt 0.000000 0.000000
vt 1.000000 0.000000
vt 1.000000 0.957031
vt 0.000000 0.957031
vt 0.000000 0.000000
vt 1.000000 0.000000
vt 1.000000 0.957031
vt 0.000000 0.957031
vt 0.000000 0.000000
vt 1.000000 0.000000
vt 1.000000 0.957031
vt 0.000000 0.957031
vt 0.000000 0.000000
vt 1.000000 0.000000
vt 1.000000 0.957031
vt 0.000000 0.957031
vt 0.000000 0.000000
vt 1.000000 0.000000
vt 1.000000 0.957031
vt 0.000000 0.957031
vt 0.000000 0.000000
vt 1.000000 0.000000
vt 1.000000 0.957031
vn 0.8869 0.3227 -0.3306
vn 0.9432 0.3295 -0.0426
vn 0.9396 0.3313 0.0860
usemtl Material
s off
f 97/97/7 98/98/7 100/99/7 99/100/7
f 101/101/8 102/102/8 104/103/8 103/104/8
f 105/105/9 106/106/9 108/107/9 107/108/9
f 109/109/7 110/110/7 112/111/7 111/112/7
f 113/113/8 114/114/8 116/115/8 115/116/8
f 117/117/9 118/118/9 120/119/9 119/120/9
f 121/121/7 122/122/7 124/123/7 123/124/7
f 125/125/8 126/126/8 128/127/8 127/128/8
f 129/129/9 130/130/9 132/131/9 131/132/9
f 133/133/7 134/134/7 136/135/7 135/136/7
f 137/137/8 138/138/8 140/139/8 139/140/8
f 141/141/9 142/142/9 144/143/9 143/144/9
